<?xml version="1.0" encoding="UTF-8"?>
<!DOCTYPE svg PUBLIC "-//W3C//DTD SVG 1.1//EN" "http://www.w3.org/Graphics/SVG/1.1/DTD/svg11.dtd">
<!-- Creator: CorelDRAW 2020 (64 Bit) -->
<svg xmlns="http://www.w3.org/2000/svg" xml:space="preserve" width="900px" height="900px" version="1.1" shape-rendering="geometricPrecision" text-rendering="geometricPrecision" image-rendering="optimizeQuality" fill-rule="evenodd" clip-rule="evenodd"
viewBox="0 0 900 900"
 xmlns:xlink="http://www.w3.org/1999/xlink"
 xmlns:xodm="http://www.corel.com/coreldraw/odm/2003">
 <g id="Camada_x0020_1">
  <metadata id="CorelCorpID_0Corel-Layer"/>
  <rect fill="black" width="900" height="900" rx="450" ry="450"/>
  <path fill="white" d="M210 175l479 0c18,0 32,14 32,32l0 64 -543 0 0 -64c0,-18 14,-32 32,-32z"/>
  <rect fill="white" stroke="black" stroke-width="2" stroke-miterlimit="22.9256" x="488" y="595" width="57" height="56"/>
  <rect fill="white" stroke="black" stroke-width="2" stroke-miterlimit="22.9256" x="421" y="595" width="57" height="56"/>
  <rect fill="white" stroke="black" stroke-width="2" stroke-miterlimit="22.9256" x="355" y="595" width="57" height="56"/>
  <rect fill="white" stroke="black" stroke-width="2" stroke-miterlimit="22.9256" x="289" y="595" width="57" height="56"/>
  <rect fill="white" stroke="black" stroke-width="2" stroke-miterlimit="22.9256" x="222" y="595" width="57" height="56"/>
  <rect fill="white" stroke="black" stroke-width="2" stroke-miterlimit="22.9256" x="620" y="530" width="57" height="56"/>
  <rect fill="white" stroke="black" stroke-width="2" stroke-miterlimit="22.9256" x="554" y="530" width="57" height="56"/>
  <rect fill="white" stroke="black" stroke-width="2" stroke-miterlimit="22.9256" x="488" y="530" width="57" height="56"/>
  <rect fill="white" stroke="black" stroke-width="2" stroke-miterlimit="22.9256" x="421" y="530" width="57" height="56"/>
  <rect fill="white" stroke="black" stroke-width="2" stroke-miterlimit="22.9256" x="355" y="530" width="57" height="56"/>
  <rect fill="white" stroke="black" stroke-width="2" stroke-miterlimit="22.9256" x="289" y="530" width="57" height="56"/>
  <rect fill="white" stroke="black" stroke-width="2" stroke-miterlimit="22.9256" x="222" y="530" width="57" height="56"/>
  <rect fill="white" stroke="black" stroke-width="2" stroke-miterlimit="22.9256" x="620" y="464" width="57" height="56"/>
  <rect fill="white" stroke="black" stroke-width="2" stroke-miterlimit="22.9256" x="554" y="464" width="57" height="56"/>
  <rect fill="white" stroke="black" stroke-width="2" stroke-miterlimit="22.9256" x="488" y="464" width="57" height="56"/>
  <rect fill="white" stroke="black" stroke-width="2" stroke-miterlimit="22.9256" x="421" y="464" width="57" height="56"/>
  <rect fill="white" stroke="black" stroke-width="2" stroke-miterlimit="22.9256" x="355" y="464" width="57" height="56"/>
  <rect fill="white" stroke="black" stroke-width="2" stroke-miterlimit="22.9256" x="289" y="464" width="57" height="56"/>
  <rect fill="white" stroke="black" stroke-width="2" stroke-miterlimit="22.9256" x="222" y="464" width="57" height="56"/>
  <rect fill="white" stroke="black" stroke-width="2" stroke-miterlimit="22.9256" x="620" y="399" width="57" height="56"/>
  <rect fill="white" stroke="black" stroke-width="2" stroke-miterlimit="22.9256" x="554" y="399" width="57" height="56"/>
  <rect fill="white" stroke="black" stroke-width="2" stroke-miterlimit="22.9256" x="488" y="399" width="57" height="56"/>
  <rect fill="white" stroke="black" stroke-width="2" stroke-miterlimit="22.9256" x="421" y="399" width="57" height="56"/>
  <rect fill="white" stroke="black" stroke-width="2" stroke-miterlimit="22.9256" x="355" y="399" width="57" height="56"/>
  <rect fill="white" stroke="black" stroke-width="2" stroke-miterlimit="22.9256" x="289" y="399" width="57" height="56"/>
  <rect fill="white" stroke="black" stroke-width="2" stroke-miterlimit="22.9256" x="222" y="399" width="57" height="56"/>
  <rect fill="white" stroke="black" stroke-width="2" stroke-miterlimit="22.9256" x="620" y="333" width="57" height="56"/>
  <rect fill="white" stroke="black" stroke-width="2" stroke-miterlimit="22.9256" x="554" y="333" width="57" height="56"/>
  <rect fill="white" stroke="black" stroke-width="2" stroke-miterlimit="22.9256" x="488" y="333" width="57" height="56"/>
  <rect fill="white" stroke="black" stroke-width="2" stroke-miterlimit="22.9256" x="421" y="333" width="57" height="56"/>
  <path fill="white" fill-rule="nonzero" d="M182 270l539 0 0 446 -543 0 0 -446 4 0zm532 8l-528 0 0 430 528 0 0 -430z"/>
 </g>
</svg>
